<svg xmlns="http://www.w3.org/2000/svg" viewBox="0 0 315.2 185.4"><defs><style>.cls-1,.cls-47{fill:#e1e8f6;}.cls-1,.cls-13,.cls-14,.cls-23,.cls-24,.cls-25,.cls-26,.cls-27,.cls-28,.cls-29,.cls-3,.cls-30,.cls-31,.cls-32,.cls-33,.cls-34,.cls-35,.cls-36,.cls-37,.cls-38,.cls-39,.cls-40,.cls-41,.cls-42,.cls-43,.cls-44,.cls-45,.cls-7{fill-rule:evenodd;}.cls-2,.cls-3{fill:#c0cdea;}.cls-4,.cls-7{fill:#00000f;}.cls-5{fill:#626687;}.cls-24,.cls-6{fill:#101537;}.cls-8{fill:#c7cae0;}.cls-9{fill:#bec4dc;}.cls-10{fill:#b5b9d1;}.cls-11{fill:#ccd3e5;}.cls-12{fill:#babfd6;}.cls-13{fill:#b0b7cf;}.cls-14{fill:#b0b7ce;}.cls-15{fill:#dbe1f1;}.cls-16{fill:#d6dcea;}.cls-17{fill:#c7cade;}.cls-18{fill:#c7cadb;}.cls-19{fill:#bdc1d5;}.cls-20{fill:#b5bed8;}.cls-21{fill:#ced2e1;}.cls-22{fill:#b6b7cb;}.cls-23{fill:#aaaec3;}.cls-25{fill:#eaeef4;}.cls-26{fill:#ec6957;}.cls-27{fill:#d84743;}.cls-28{fill:#ee9073;}.cls-29{fill:#dbd7d7;}.cls-30{fill:#3b405f;}.cls-31,.cls-46{fill:#fff;}.cls-32{fill:#e27e67;}.cls-33{fill:#f5ac83;}.cls-34{fill:#f6f5f4;}.cls-35{fill:#080321;}.cls-36{fill:#dbe2f3;}.cls-37{fill:#eaeef8;}.cls-38{fill:#003053;}.cls-39{fill:#1874ba;}.cls-40{fill:#b83470;}.cls-41{fill:#e13c83;}.cls-42{fill:#e94d90;}.cls-43{fill:#ee788f;}.cls-44{fill:#f5c8b4;}.cls-45{fill:#f4bca3;}</style></defs><title>hi_user</title><g id="Layer_2" data-name="Layer 2"><g id="Layer_1-2" data-name="Layer 1"><path class="cls-1" d="M37.7,185.4A37.9,37.9,0,0,1,0,147.6H0a37.9,37.9,0,0,1,37.7-37.7h0a16,16,0,0,0,16-16h0A16,16,0,0,0,37.7,78H35.8A16.6,16.6,0,0,1,19.3,61.4h0A16.5,16.5,0,0,1,35.8,44.8h5.9a6.5,6.5,0,0,0,6.4-6.5h0a6.5,6.5,0,0,0-6.4-6.5H37.4a4.5,4.5,0,0,1-4.5-4.4h0a4.5,4.5,0,0,1,4.5-4.5H66.2a7,7,0,0,0,7-7h0a7.1,7.1,0,0,0-7-7H57.6a4.5,4.5,0,0,1-4.5-4.4h0A4.5,4.5,0,0,1,57.6,0H166.4a5.8,5.8,0,0,1,5.8,5.8h0a5.8,5.8,0,0,1-5.8,5.8H148.7a9.2,9.2,0,0,0-9.1,9.2h0a9.1,9.1,0,0,0,9.1,9.1h31.2a5.8,5.8,0,0,1,5.8,5.8h0a5.9,5.9,0,0,1-5.8,5.9h-5.6a8.5,8.5,0,0,0-8.4,8.4h0a8.5,8.5,0,0,0,8.4,8.4h64.3a21.7,21.7,0,0,1,21.6,21.7h0a21.6,21.6,0,0,1-21.6,21.6H223.4a21,21,0,0,0-20.9,20.9h0a20.9,20.9,0,0,0,20.9,20.8h70.8a21,21,0,0,1,21,21h0a21.1,21.1,0,0,1-21,21ZM181.2,11.6a5.8,5.8,0,1,0-5.8-5.8,5.8,5.8,0,0,0,5.8,5.8ZM24.9,31.8a4.4,4.4,0,0,0,4.4-4.4,4.5,4.5,0,1,0-8.9,0A4.4,4.4,0,0,0,24.9,31.8Z"/><rect class="cls-2" x="204.3" y="64.6" width="42.4" height="20.05" rx="2.5"/><polygon class="cls-3" points="52 77.8 48 78.9 54.6 85.5 162.8 85.5 159 78.9 52 77.8"/><rect class="cls-4" x="46.9" y="76.2" width="112.7" height="2.72" rx="0.6"/><rect class="cls-5" x="68.2" y="81.2" width="4.1" height="6.52" rx="0.4"/><rect class="cls-5" x="134.2" y="81.2" width="4.1" height="6.52" rx="0.4"/><rect class="cls-4" x="133.7" y="77.7" width="5.2" height="4.82" rx="0.5"/><polygon class="cls-3" points="52 45.5 48 46.6 54.6 53.2 162.8 53.2 159 46.6 52 45.5"/><rect class="cls-4" x="46.9" y="43.8" width="112.7" height="2.72" rx="0.6"/><rect class="cls-5" x="68.2" y="48.9" width="4.1" height="6.52" rx="0.4"/><rect class="cls-5" x="134.2" y="48.9" width="4.1" height="6.52" rx="0.4"/><rect class="cls-4" x="129.1" y="39.9" width="27.2" height="4.14" rx="0.6"/><rect class="cls-6" x="132.2" y="36" width="21" height="4.09" rx="0.6"/><path class="cls-7" d="M133.9,25.8l-9.8,17.1a.5.5,0,0,0,.2.8l2.4,1.4a.7.7,0,0,0,.9-.2l9.9-17.1a.6.6,0,0,0-.3-.8l-2.4-1.5A.8.8,0,0,0,133.9,25.8Z"/><rect class="cls-4" x="136.8" y="33.7" width="14.1" height="2.46" rx="0.4"/><rect class="cls-4" x="115.8" y="33.5" width="21" height="4.09" rx="0.6" transform="translate(32.4 127.1) rotate(-60)"/><rect class="cls-4" x="133.7" y="45.4" width="5.2" height="4.82" rx="0.5"/><rect class="cls-8" x="78.1" y="25.1" width="12.5" height="18.78" rx="0.9"/><rect class="cls-9" x="91.5" y="25.1" width="6.3" height="18.78" rx="0.5"/><rect class="cls-10" x="96" y="21.5" width="7.4" height="22.32" rx="0.5"/><rect class="cls-11" x="93.6" y="35.1" width="12.2" height="8.7" rx="0.6"/><rect class="cls-8" x="107.1" y="27.9" width="6.3" height="15.94" rx="0.5"/><rect class="cls-12" x="80.4" y="29.3" width="7.7" height="4.78" rx="0.6"/><rect class="cls-12" x="80.4" y="35.1" width="7.7" height="1.52" rx="0.5"/><rect class="cls-12" x="80.4" y="38.1" width="7.7" height="1.52" rx="0.5"/><path class="cls-13" d="M110.3,37.5a1.5,1.5,0,0,0,1.3-1.6,1.3,1.3,0,1,0-2.6,0A1.5,1.5,0,0,0,110.3,37.5Z"/><path class="cls-14" d="M90.2,62.3h.5v-.9h-.2c-.3,0-.5-.3-.5-.7h0c0-.4.2-.7.5-.7h.6V56.1a.7.7,0,0,1,.6-.7h0a.7.7,0,0,1,.6.7V60h.6a.7.7,0,0,1,.6.7h0a.7.7,0,0,1-.6.7h-.2v.9h.5c.4,0,.6.3.6.7V75.4c0,.4-.2.8-.6.8h-3c-.3,0-.6-.4-.6-.8V63A.7.7,0,0,1,90.2,62.3Z"/><path class="cls-14" d="M85.3,63.7h.5v-.8h-.2a.6.6,0,0,1-.5-.6h0a.6.6,0,0,1,.5-.6h.6V58.2a.6.6,0,0,1,.5-.6h0a.6.6,0,0,1,.5.6v3.5h.5a.6.6,0,0,1,.5.6h0a.6.6,0,0,1-.5.6h-.1v.8H88a.7.7,0,0,1,.6.7V75.5a.7.7,0,0,1-.6.7H85.3c-.3,0-.5-.3-.5-.7V64.4C84.8,64,85,63.7,85.3,63.7Z"/><rect class="cls-15" x="76.4" y="63" width="8.7" height="13.1" rx="0.6"/><rect class="cls-16" x="78" y="66" width="5.4" height="3.33" rx="0.4"/><rect class="cls-16" x="78" y="70.1" width="5.4" height="1.06" rx="0.4"/><rect class="cls-16" x="78" y="72.1" width="5.4" height="1.06" rx="0.4"/><rect class="cls-17" x="85.8" y="68.1" width="5.3" height="8.05" rx="0.4"/><rect class="cls-17" x="94.6" y="64.2" width="11" height="11.94" rx="0.8"/><rect class="cls-15" x="92.5" y="68.1" width="5.3" height="8.05" rx="0.4"/><rect class="cls-18" x="134.4" y="61.4" width="12.5" height="14.77" rx="0.9"/><rect class="cls-19" x="127.1" y="61.4" width="6.3" height="14.77" rx="0.5"/><rect class="cls-20" x="121.6" y="58.6" width="7.4" height="17.56" rx="0.5"/><rect class="cls-21" x="119.2" y="69.3" width="12.2" height="6.84" rx="0.5"/><rect class="cls-18" x="111.5" y="63.6" width="6.3" height="12.53" rx="0.5"/><rect class="cls-22" x="136.8" y="64.7" width="7.7" height="3.76" rx="0.5"/><rect class="cls-22" x="136.8" y="69.3" width="7.7" height="1.2" rx="0.4"/><rect class="cls-22" x="136.8" y="71.6" width="7.7" height="1.2" rx="0.4"/><path class="cls-23" d="M114.6,71.1a1.2,1.2,0,0,0,1.3-1.2,1.3,1.3,0,1,0-2.6,0A1.2,1.2,0,0,0,114.6,71.1Z"/><rect class="cls-4" x="67.4" y="77.7" width="5.2" height="4.82" rx="0.5"/><rect class="cls-4" x="67.4" y="45.4" width="5.2" height="4.82" rx="0.5"/><path class="cls-24" d="M92.9,107.1l.9,4.7s5.8,3.3,6.4,9c.8,7.7,2.1,18.2,4,25.1,1.3,4.9,3.2,10.6,5,15.7h-7.3A142.3,142.3,0,0,1,94,133.2C90.6,111.4,92.9,107.1,92.9,107.1Z"/><path class="cls-7" d="M90.5,100.7c3.2,2.3,8.4,6.5,9.4,16.9.3,2.8.6,6.3,1.1,10s-1.4,8.1-.7,14.8a105.6,105.6,0,0,0,3.9,19.2h-2.3A142.3,142.3,0,0,1,94,133.2c-2.5-16.5-1.9-23-1.4-25.2C93,107.9,90,100.8,90.5,100.7Z"/><path class="cls-25" d="M90.4,111.3c-2-1.3-5.4-15.7-7.6-13.4s-11.3,4.3-12.5,4.8,8.2,35.4,16,38.7c2.9,1.2,4.7-.1,5.8-2.6C94.1,134.2,95.5,114.5,90.4,111.3Z"/><path class="cls-26" d="M79.5,105.3l.4.6S85.2,122,85,134.8s-6.7,1.9-6.6.8,1.3-22,.1-29.6C78.5,106,78.6,105,79.5,105.3Z"/><path class="cls-27" d="M79.5,105.3l.4.6.5,1.6c-.4.3-.9,1-.8,2.6s-.2,11.1,4.8,15.6a71.9,71.9,0,0,1,.6,9.1c-.2,12.8-6.7,1.9-6.6.8s1.3-22,.1-29.6C78.5,106,78.6,105,79.5,105.3Z"/><path class="cls-24" d="M82.6,97.4a54.4,54.4,0,0,1,3.3,26.3,124.4,124.4,0,0,1-6.2,24.9v13H97.2a92.4,92.4,0,0,1,.2-12.7C98.8,133.3,103.2,100.1,82.6,97.4Z"/><path class="cls-7" d="M86.3,119.3c-.1,1.5-.2,2.9-.4,4.4a124.4,124.4,0,0,1-6.2,24.9v13h8.4c-2.8-19.5,3.1-34.5,3.8-38.3a52.7,52.7,0,0,0,.8-5.4l-4.5-4.5-.5,5.7Z"/><path class="cls-24" d="M85.7,161.6c-.5-3-.9-5.7-1.1-7.4-2-22.8-1-38-16.6-56-3.6.7-9.4,3.8-9.4,3.8-2.9,1.4-6.5,4.1-6.9,7.4s4.4,20.8,7.6,30.9c2.4,7.5,1.6,14.9.3,21.3Z"/><path class="cls-7" d="M64.3,161.6c.1-1.5.3-3,.5-4.6,2.4-17.7-3.3-38.5-3.3-38.5l-2.6,2.2L54,122.6c1.6,5.9,3.7,12.6,5.3,17.7,2.4,7.5,1.6,14.9.3,21.3Z"/><path class="cls-28" d="M70.1,83.1V95.4a3.2,3.2,0,0,1-1.4,2c1.4,1.5,4.7,4.8,6.8,5.2a10.1,10.1,0,0,0,6.5-1.5c.5-.4.6-2.8.9-4.1h-.2a3.2,3.2,0,0,1-1.7-1c-1.3-1.3-1.2-7.4.1-9S70.1,83.1,70.1,83.1Z"/><path class="cls-29" d="M80.1,100.9l-1.6-.8s-.1,1.6-.3,1.7-.4-1-1-1.4-2.4,1.9-2.4,1.9.6,1.9,1.6,2,3.7.5,3.7-.4A28.8,28.8,0,0,0,80.1,100.9Z"/><path class="cls-27" d="M78.1,102.9a5.9,5.9,0,0,1-2.4-.8,1.6,1.6,0,0,0-2,.2l1.1,1.2v.5a3.6,3.6,0,0,1,2.6.5C78.5,105.2,78.1,102.9,78.1,102.9Z"/><path class="cls-30" d="M82.8,97.9s7.2,17.5-.1,41.3V141s6.1-11.1,9-20.1a1.2,1.2,0,0,0-.4-1.2,6.7,6.7,0,0,0-2.5-1.3c-.7,0,.3-.9,3,.3a1.2,1.2,0,0,0,.9-.8c.2-.6-.6-10.6-7.8-20,0,0-.1-.3-.7-.5S82.6,97,82.8,97.9Z"/><path class="cls-31" d="M69.5,95.7a9.7,9.7,0,0,0,6.9,4.2s1.1.3,1.1,1.3-3,3.7-3.3,5.2-6.3-6.2-6.7-8.6C67.5,97.8,68.5,95.9,69.5,95.7Z"/><path class="cls-26" d="M80.2,103a2.2,2.2,0,0,0-1-.5,2.5,2.5,0,0,0-1.7.4,2.5,2.5,0,0,0-.8,1.2,6.4,6.4,0,0,0,1.8,1.9c.5.2.9-.1,1.4-.1S80.5,103.5,80.2,103Z"/><path class="cls-27" d="M78,102.6l-.5.3a2.5,2.5,0,0,0-.8,1.2,6.4,6.4,0,0,0,1.8,1.9c.5.2.9-.1,1.4-.1s.2-.1.3-.4C76.9,105,77.8,103,78,102.6Z"/><path class="cls-30" d="M68,98.2s14.3,10,15.6,44.6c0,0,.1.7-.3.8s-6.8-18.5-11-21.8a1.2,1.2,0,0,1-.4-1.2c.3-.8,2.3-2.2,3.3-2.7s-2.7,0-4,.7-2.1,0-3-1.3.3-15.9-3.3-18.2a.4.4,0,0,1,.1-.4c.2-.2,2.1-.7,2.2-.8A1,1,0,0,1,68,98.2Z"/><path class="cls-31" d="M81.4,95.5s-.1,3.1-2.5,4.2c0,0-.7.3-.1.9a13.4,13.4,0,0,1,1.5,4c.2,1,3.2-4.3,3-7.6A5.5,5.5,0,0,0,81.4,95.5Z"/><path class="cls-24" d="M54,108.9s.3-4.1-1.9-1.1-9.1,44.1-8.2,48.1c.2,1,1.5,3.1,3.3,5.7H58c-1.9-3-3.4-5.6-4.1-7-2.2-4.7,6.7-24.6,7.4-28.2S62.2,112.9,54,108.9Z"/><path class="cls-7" d="M53.9,154.6c-1.5-3.2,2.1-13.5,4.9-20.8q.5-1.4.9-2.4a36.5,36.5,0,0,0,1.6-5,2.9,2.9,0,0,0,.2-.9,9.7,9.7,0,0,0,.1-1.8c.1-.9.7-1.4.6-2.6-.6-4.4-2.9-6.1-3.5-5.6s-.2,4.6-.3,5.5-.2,1.9-.4,3.4a11.6,11.6,0,0,1-.4,1.8,36,36,0,0,1-.8,3.7c-.5,2-1.1,4.3-2,7.1-4.5,14.1-.5,18.2-.5,18.2l-.4-.6Zm-10.1.8a4.3,4.3,0,0,0,.1.5c.2,1,1.5,3.1,3.3,5.7h1.2C45.7,158.1,43.8,155.4,43.8,155.4Z"/><path class="cls-7" d="M91.8,57.8s2.3,2.7,2.4,4.7-2.6,10.7-2.6,12-2.2.9-2.4-.9S83.9,60.8,91.8,57.8Z"/><path class="cls-32" d="M90.1,73.5a4.3,4.3,0,1,0,4.2,4.2A4.2,4.2,0,0,0,90.1,73.5Z"/><path class="cls-32" d="M60.8,73.5a4.3,4.3,0,0,0,0,8.5,4.3,4.3,0,1,0,0-8.5Z"/><path class="cls-33" d="M76.4,51.9h0A14.7,14.7,0,0,0,61.8,66.5V79.8A14.7,14.7,0,0,0,76.4,94.4h0A14.7,14.7,0,0,0,91.1,79.8V66.5A14.7,14.7,0,0,0,76.4,51.9Z"/><path class="cls-28" d="M62.2,63.3a11.2,11.2,0,0,0-.4,3.2V79.8A14.7,14.7,0,0,0,76.4,94.4c-15.6-3.1-10.6-22.9-5.8-24.6s15.1-2.1,17.8-1.6A3,3,0,0,1,91.1,71V66.5a15,15,0,0,0-.8-4.7c-3-.4-10.7,0-17.8,0a37.4,37.4,0,0,0-10.3,1.5Z"/><path class="cls-7" d="M86.6,73.8h0a1.5,1.5,0,0,0-1.5,1.5v1.8a1.5,1.5,0,0,0,1.5,1.5h0A1.5,1.5,0,0,0,88,77.1V75.3A1.5,1.5,0,0,0,86.6,73.8Z"/><path class="cls-7" d="M70.2,73.8h0a1.5,1.5,0,0,0-1.4,1.5v1.8a1.5,1.5,0,0,0,1.4,1.5h0a1.5,1.5,0,0,0,1.5-1.5V75.3A1.5,1.5,0,0,0,70.2,73.8Z"/><path class="cls-7" d="M88.6,70.3H84.5a.7.7,0,0,0-.7.7h0a.7.7,0,0,0,.7.8h4.1a.8.8,0,0,0,.8-.8h0A.8.8,0,0,0,88.6,70.3Z"/><path class="cls-7" d="M72.2,70.3h-4a.8.8,0,0,0-.8.7h0a.8.8,0,0,0,.8.8h4A.7.7,0,0,0,73,71h0A.7.7,0,0,0,72.2,70.3Z"/><path class="cls-31" d="M73.7,82a4.7,4.7,0,0,0,4.7,4.6A4.6,4.6,0,0,0,83,82h0a.7.7,0,0,0-.8-.8H74.5a.8.8,0,0,0-.8.8Z"/><path class="cls-32" d="M87.5,79.5a2.1,2.1,0,1,0,2.1,2.1A2.1,2.1,0,0,0,87.5,79.5Z"/><path class="cls-32" d="M69.3,79.5a2.1,2.1,0,1,0,2.1,2.1A2.1,2.1,0,0,0,69.3,79.5Z"/><path class="cls-24" d="M61.8,77.4a8.6,8.6,0,0,0,2.8-7.8s2.6-3.4.9-6c0,0,14.4,3.2,23.4.3S97,49.8,91.4,44.7c-2.6-2.4-5.1-2.7-6.2-1.2-6.3,8.6-28.2-1-24.9,13.9,0,0-5.8,3.7-.3,16.2C60,73.6,62.2,73.3,61.8,77.4Z"/><path class="cls-7" d="M61.8,77.4a8.6,8.6,0,0,0,2.8-7.8s2.6-3.4.9-6a81,81,0,0,0,12.8,1.5c-5.6-.9-11-3.2-14.9-7.3-2.3-2.3-2.8-4.5-2.6-6.3-.8,1.3-1.1,3.2-.5,5.9,0,0-5.8,3.7-.3,16.2C60,73.6,62.2,73.3,61.8,77.4Z"/><path class="cls-30" d="M62.9,49.5c3.9,15.6,19.4,14.6,32.6,6.2a13.5,13.5,0,0,0-1.9-8.3h-.1C83.3,61.2,67.3,59.8,64.2,49Z"/><path class="cls-24" d="M159.9,107.1l-.9,4.7s-5.8,3.3-6.4,9c-.8,7.7-2.1,18.2-3.9,25.1-1.3,4.9-3.2,10.6-5,15.7h7.2a149.3,149.3,0,0,0,8-28.4C162.2,111.4,159.9,107.1,159.9,107.1Z"/><path class="cls-7" d="M162.4,100.7c-3.3,2.3-8.5,6.5-9.5,16.9-.2,2.8-.6,6.3-1,10s1.4,8.1.6,14.8a105.6,105.6,0,0,1-3.9,19.2h2.3a149.3,149.3,0,0,0,8-28.4c2.5-16.5,1.8-23,1.3-25.2C159.8,107.9,162.8,100.8,162.4,100.7Z"/><path class="cls-29" d="M198.6,109.5l-6.1-7.6-1.3-1.2-13.4-5-6.1,1h0s-6.2,3-6.7,3h-.3l-3.6,10.5s-2.3,15.2-2.6,16.2-.6,15.6.6,17.7.2,5.4,4.6,6.7,13.9,4,20.3-2.7,7.6-10.4,9.2-12.7S198.6,109.5,198.6,109.5Z"/><path class="cls-34" d="M162.5,111.3c2-1.3,7.4-16.5,9.5-14.2s12.3,3.3,13.5,3.8-11.2,37.2-19,40.5c-2.9,1.2-4.7-.1-5.8-2.6C158.7,134.2,157.3,114.5,162.5,111.3Z"/><path class="cls-26" d="M173.3,105.3l-.4.6s-5.3,16.1-5.1,28.9,6.7,1.9,6.6.8-1.2-22-.1-29.6C174.3,106,174.2,105,173.3,105.3Z"/><path class="cls-27" d="M173.3,105.3l-.4.6-.5,1.6c.4.3.9,1,.9,2.6s.1,11.1-4.9,15.6a71.9,71.9,0,0,0-.6,9.1c.3,12.8,6.7,1.9,6.6.8s-1.2-22-.1-29.6C174.3,106,174.2,105,173.3,105.3Z"/><path class="cls-24" d="M170.2,97.4a55.1,55.1,0,0,0-3.2,26.3,120.7,120.7,0,0,0,6.1,24.9v13H155.6a68.7,68.7,0,0,0-.2-12.7C154,133.3,149.6,100.1,170.2,97.4Z"/><path class="cls-7" d="M166.6,119.3a21.8,21.8,0,0,0,.4,4.4,120.7,120.7,0,0,0,6.1,24.9v13h-8.4c2.8-19.5-3.1-34.5-3.8-38.3a34.5,34.5,0,0,1-.7-5.4l4.4-4.5.5,5.7Z"/><path class="cls-24" d="M167.1,161.6c.5-3,.9-5.7,1.1-7.4,2-22.8,1-38,16.6-56,3.7.7,9.4,3.8,9.4,3.8,2.9,1.4,6.5,4.1,7,7.4s-4.5,20.8-7.7,30.9c-2.4,7.5-1.6,14.9-.3,21.3Z"/><path class="cls-7" d="M188.5,161.6c-.1-1.5-.3-3-.5-4.6-2.4-17.7,3.3-38.5,3.3-38.5l2.7,2.2,4.8,1.9c-1.6,5.9-3.7,12.6-5.3,17.7-2.4,7.5-1.6,14.9-.3,21.3Z"/><path class="cls-28" d="M182.8,83.1l-.2,3.6v8.7a3.2,3.2,0,0,0,1.4,2c-1.3,1.5-4.6,4.8-6.7,5.2a9.7,9.7,0,0,1-6.5-1.5c-.6-.4-.6-2.8-.9-4.1h.2a3.4,3.4,0,0,0,1.6-1c1.3-1.3,1.2-7.4,0-9S182.8,83.1,182.8,83.1Z"/><path class="cls-29" d="M172.8,100.9l1.5-.8s.1,1.6.3,1.7.4-1,1.1-1.4,2.4,1.9,2.4,1.9-.7,1.9-1.6,2-3.8.5-3.8-.4S172.8,100.9,172.8,100.9Z"/><path class="cls-27" d="M174.7,102.9a6.6,6.6,0,0,0,2.5-.8,1.5,1.5,0,0,1,1.9.2l-1.1,1.2v.5a3.6,3.6,0,0,0-2.6.5C174.3,105.2,174.7,102.9,174.7,102.9Z"/><path class="cls-30" d="M170,97.9s-7.2,17.5.1,41.3V141s-6.1-11.1-8.9-20.1a1.1,1.1,0,0,1,.3-1.2,7.1,7.1,0,0,1,2.6-1.3c.7,0-.4-.9-3.1.3a1.1,1.1,0,0,1-.8-.8c-.2-.6.6-10.6,7.8-20a1,1,0,0,1,.6-.5C169.1,97.3,170.2,97,170,97.9Z"/><path class="cls-31" d="M183.3,95.7a9.7,9.7,0,0,1-6.9,4.2,1.4,1.4,0,0,0-1,1.3c0,1,2.9,3.7,3.2,5.2s6.3-6.2,6.7-8.6C185.3,97.8,184.3,95.9,183.3,95.7Z"/><path class="cls-26" d="M172.6,103a2.2,2.2,0,0,1,1.1-.5c.4,0,1.3,0,1.6.4a2.5,2.5,0,0,1,.8,1.2c.1.3-1.4,1.7-1.8,1.9s-.9-.1-1.4-.1S172.3,103.5,172.6,103Z"/><path class="cls-27" d="M174.8,102.6l.5.3a2.5,2.5,0,0,1,.8,1.2c.1.3-1.4,1.7-1.8,1.9s-.9-.1-1.4-.1-.2-.1-.3-.4C176,105,175,103,174.8,102.6Z"/><path class="cls-30" d="M184.8,98.2s-14.3,10-15.6,44.6c0,0-.1.7.3.8s6.8-18.5,11-21.8a1.1,1.1,0,0,0,.4-1.2c-.3-.8-2.3-2.2-3.2-2.7s2.6,0,3.9.7,2.1,0,3-1.3-.3-15.9,3.3-18.2a.4.4,0,0,0-.1-.4,19.5,19.5,0,0,0-2.2-.8A1.1,1.1,0,0,0,184.8,98.2Z"/><path class="cls-31" d="M171.5,95.5s.1,3.1,2.5,4.2c0,0,.6.3.1.9a16.7,16.7,0,0,0-1.6,4c-.2,1-3.2-4.3-2.9-7.6A5.5,5.5,0,0,1,171.5,95.5Z"/><path class="cls-24" d="M197.2,106.6s-1.8-3.7,1.3-1.7S222.7,143,223.2,147c.2,1.7-1.3,7.9-3.4,14.6h-8.6c1.1-5.1,2-10.1,2.2-12.3.4-5.2-15-20.6-16.9-23.7S190.9,113.2,197.2,106.6Z"/><path class="cls-7" d="M213.4,149.3c.3-3.6-6.8-11.8-11.9-17.7l-1.7-2a37.6,37.6,0,0,1-3.3-4l-.5-.8c-.3-.5-.5-1-.8-1.6s-2.7-4.1-3-5.2,2.1-3.8,2.9-3.5,1.8,4.1,2.2,5l1.6,3,1,1.6c.5.9,1.2,1.9,2,3.2s2.6,3.6,4.5,5.9c9.2,11.6,6.9,16.8,6.9,16.8a1.7,1.7,0,0,1,.1-.7Zm9.7-2.8a1.1,1.1,0,0,1,.1.5c.2,1.7-1.3,7.9-3.4,14.6h-1.1C221.1,154.2,223.1,146.5,223.1,146.5Z"/><path class="cls-7" d="M160.2,63.7l.2,2.5s.9,1,4.2.6,30.9.8,30.9.8.3.2.7-.4-1.6-7.7-1.6-7.7Z"/><path class="cls-32" d="M162.5,71.2a4.7,4.7,0,0,1,4.7,4.6,4.7,4.7,0,1,1-4.7-4.6Z"/><path class="cls-32" d="M194.2,71.2a4.6,4.6,0,0,1,4.6,4.6,4.5,4.5,0,0,1-4.6,4.6,4.6,4.6,0,0,1-4.6-4.6A4.7,4.7,0,0,1,194.2,71.2Z"/><path class="cls-33" d="M177.3,47.8h0a15.9,15.9,0,0,1,15.9,15.8V78a16,16,0,0,1-15.9,15.9h0A15.9,15.9,0,0,1,161.5,78V63.6A15.8,15.8,0,0,1,177.3,47.8Z"/><path class="cls-28" d="M192.8,60.1a20.9,20.9,0,0,1,.4,3.5V78a16,16,0,0,1-15.9,15.9c16.9-3.4,11.5-24.8,6.3-26.7s-16.3-2.3-19.3-1.7a3.1,3.1,0,0,0-2.8,3V63.6a17.5,17.5,0,0,1,.8-5.1c3.2-.4,14.6-1.7,20.6-1.7s6.8,2.5,9.9,3.3Z"/><rect class="cls-4" x="164.8" y="71.6" width="3.1" height="5.12" rx="1.5"/><rect class="cls-4" x="182.5" y="71.6" width="3.1" height="5.12" rx="1.5"/><path class="cls-7" d="M164.2,67.7h4.4a.9.9,0,0,1,.8.9h0a.9.9,0,0,1-.8.8h-4.4a.9.9,0,0,1-.9-.8h0A.9.9,0,0,1,164.2,67.7Z"/><path class="cls-7" d="M181.9,67.7h4.3a.9.9,0,0,1,.9.9h0a.9.9,0,0,1-.9.8h-4.3a.9.9,0,0,1-.9-.8h0A.9.9,0,0,1,181.9,67.7Z"/><path class="cls-31" d="M180.2,80.4a5,5,0,0,1-10,0h0a.9.9,0,0,1,.8-.9h8.4a.9.9,0,0,1,.8.9Z"/><path class="cls-32" d="M165.4,77.7a2.3,2.3,0,1,1-2.3,2.3A2.2,2.2,0,0,1,165.4,77.7Z"/><path class="cls-32" d="M185.1,77.7a2.3,2.3,0,1,1,0,4.6,2.3,2.3,0,1,1,0-4.6Z"/><path class="cls-7" d="M187.5,57.3c-.5,2.8,2.4,12.8,3.8,13.9s-1.2,3.4,1.4,4.5c0,0-.7-4.4,2.7-4.4l.6-6.9-3-6.2Z"/><path class="cls-24" d="M196.2,67.2s6.9-15.6-7.5-18c0,0-4-7.4-11.6-5.4s-12.3,2.1-15.8-1.2c0,0-1.9,3.7.5,6.9a5.2,5.2,0,0,0-2.9,3.8,3.2,3.2,0,0,1-3.2,2.7,4.1,4.1,0,0,0,3.6,1s-1.3,6.1,1.1,9.2c0,0,.3-2.6,5.9-2.5s10.2.8,12.9-3.1a6.2,6.2,0,0,1-2.9,3.7s7.2,0,9.1-5.4C185.8,66.3,193.5,64.3,196.2,67.2Z"/><path class="cls-30" d="M195.6,52.6l-1.4-1.2c-5.1.5-14.1.3-19.2-7.1-4.1,1-7.3,1.2-9.9.5C168.6,49.8,178.6,60.8,195.6,52.6Z"/><path class="cls-35" d="M196.2,67.2a19.7,19.7,0,0,0,1.6-8.1c-2.8,2.2-7.4,3.8-12.1-2.4,0,0-1.5,6-9.4,7.6,0,0,7.2,0,9.1-5.4C185.8,66.3,193.5,64.3,196.2,67.2Z"/><path class="cls-24" d="M105.9,86.8c-.6-6.4,7.1-25.6,12-34.3s13.6-8,15.9-5.5c0,0,12.6-3.7,17.8,4.6,3.3,5.1,4.3,17.3,4.2,28.3s-4.2,15.6-10.1,18c1.6-4.4.4-7.3.4-7.3.7,2.9-1.1,7.4-1.1,7.6l-1.8.5a14.1,14.1,0,0,0,.4-8c-.3,3-2.4,6.5-3.8,8.6C125.4,100.8,106.3,90.8,105.9,86.8Z"/><path class="cls-35" d="M155.4,68.5c.3,3.7.4,7.6.4,11.4a25,25,0,0,1-1.4,8.8c-15.1-7.2-30.1-15.2-30.1-15.2-1.4-2.7,1.9-17.1,1.9-17.1S134.4,73.4,155.4,68.5Z"/><path class="cls-7" d="M153.2,91.4a14.8,14.8,0,0,1-7.5,6.5c1.6-4.4.4-7.3.4-7.3.7,2.9-1.1,7.4-1.1,7.6l-1.8.5a14.1,14.1,0,0,0,.4-8c-.3,3-2.4,6.5-3.8,8.6-10,1.1-22.3-3.5-29-7.7,0,0-3.7-22.4,5.8-24.9S134.9,80,134.9,80l7.2-3.4S153.2,81.3,153.2,91.4Z"/><path class="cls-7" d="M141.8,165.5c-.3-3.4-.6-6.2-.8-8.1a2.8,2.8,0,0,0-2.3-2.3c-.8-.7-4.6-.7-12.9-.6s-12.2-.1-12.9.6-2.1.7-2.3,2.3-.6,4.7-.9,8.1Z"/><path class="cls-31" d="M125.8,158.2c2.7,0,5.5-.1,10.2-.5s4.8-3.2,4.8-6.6c0-14.8,2.1-19.1,3.3-23.1s3.5-19.3.5-22.8-9.7-5.1-9.7-5.1l-4.2,1.8-4.9,1.7v.9h0v-.9l-4.9-1.7-4.3-1.8s-6,.9-9.7,5.1-1.1,17.8.5,22.8,3.4,8.3,3.3,23.1c0,3.4-.4,6.2,4.8,6.6S123,158.2,125.8,158.2Z"/><path class="cls-36" d="M132.9,157.9l3.1-.2c5.3-.4,4.8-3.2,4.8-6.6,0-14.8,2.1-19.1,3.3-23.1a50.4,50.4,0,0,0,1.7-8.5,13.2,13.2,0,0,0-2.8-4.1s-.6,0-.8,1-1.8,8.3-3,10.1-5.8,2-12.9,2-16.1-1.1-18.8-4.6a1,1,0,0,0-1.1-.4c.3,1.8.7,3.4,1,4.5s1.3,3.6,1.9,6.3l.4-.8s-.5-2.6,1.9-2.6,19.5.8,23.9,4.1S138.1,156.2,132.9,157.9Z"/><path class="cls-3" d="M133.8,100a11.2,11.2,0,0,0-.2-2,5,5,0,0,0-4.1-.7l-3.7.6-3.7-.6a5.2,5.2,0,0,0-4.2.7s-.2,1.8-.2,2c.4,2.6,8.1,4,8.1,4S133.4,102.6,133.8,100Z"/><path class="cls-28" d="M131.1,85.3V97.7a3.2,3.2,0,0,0,1.4,2,34.3,34.3,0,0,1-3.8,3.6h-5.7a34.3,34.3,0,0,1-3.8-3.6,3,3,0,0,0,1.5-2V89l-.2-3.7,5.4,1.2Z"/><path class="cls-32" d="M117.3,71.5a4.3,4.3,0,0,1,3.1,5,4.1,4.1,0,0,1-8.1-1.8A4.2,4.2,0,0,1,117.3,71.5Z"/><path class="cls-32" d="M143.4,77.6a4.1,4.1,0,0,1,3.1,4.9,4.2,4.2,0,0,1-5,3.2,4.3,4.3,0,0,1-3.1-5A4.1,4.1,0,0,1,143.4,77.6Z"/><path class="cls-33" d="M134.2,53.9h0a14.2,14.2,0,0,1,10.6,17l-2.9,12.6a14.3,14.3,0,0,1-17,10.7h0a14.4,14.4,0,0,1-10.7-17.1l2.9-12.5A14.3,14.3,0,0,1,134.2,53.9Z"/><path class="cls-28" d="M134.2,53.9h0a14.2,14.2,0,0,1,10.6,17l-2.9,12.6a14.3,14.3,0,0,1-17,10.7h0l-.7-.2c6.6,0,10.4-2.2,12.3-5.2,7.1-11.2-5.7-16.2-9.8-21.6A8.9,8.9,0,0,1,125,64c-1.6,2.9-6.3,4.5-8.9,5.2l1-4.6A14.3,14.3,0,0,1,134.2,53.9Z"/><path class="cls-7" d="M120.3,69.8l3.9.9a.7.7,0,0,1,.5.9h0a.8.8,0,0,1-.9.6l-3.8-.9a.8.8,0,0,1-.6-.9h0A.8.8,0,0,1,120.3,69.8Z"/><path class="cls-7" d="M135.8,73.4l3.8.9a.8.8,0,0,1,.6.9h0a.9.9,0,0,1-.9.6l-3.8-.9a.8.8,0,0,1-.6-.9h0A.8.8,0,0,1,135.8,73.4Z"/><path class="cls-31" d="M131.8,84.2a4.6,4.6,0,0,1-5.4,3.4,4.7,4.7,0,0,1-3.4-5.5h0a.9.9,0,0,1,1-.6l7.2,1.7a.8.8,0,0,1,.6,1Z"/><path class="cls-32" d="M119.4,78.8a2.1,2.1,0,0,1,1.5,2.5,2.1,2.1,0,0,1-2.5,1.5,2,2,0,0,1-1.5-2.5A2,2,0,0,1,119.4,78.8Z"/><path class="cls-32" d="M136.6,82.8a1.9,1.9,0,0,1,1.5,2.4,2.1,2.1,0,0,1-2.4,1.6,2.2,2.2,0,0,1-1.6-2.5A2.1,2.1,0,0,1,136.6,82.8Z"/><path class="cls-35" d="M145.1,78l-2.7-1.9s-2.5,3.3,0,5.1l.4-1.7A1.9,1.9,0,0,1,145.1,78Z"/><path class="cls-24" d="M125.8,57.1s-.9,10.7,18.4,20.7l3.3-15.1-8.8-9.8-10.6-1s-6.3,2.4-7,3-6.1,9.7-6.1,9.7l1.6,2.1S121.5,65.7,125.8,57.1Z"/><path class="cls-35" d="M125.9,57.9c.2,2.6,2.1,11.5,18.3,19.9l1.8-8.5a24.9,24.9,0,0,1-19.8-12.9Z"/><path class="cls-30" d="M126.9,45.5a9.6,9.6,0,0,1,6.1.8c2.6,17.3,15.6,18.8,22.1,18.4,0,.4.1.7.1,1.1C130.6,68.3,127.2,52.5,126.9,45.5Z"/><path class="cls-32" d="M129,106.2a14.1,14.1,0,0,1-1.9,3c-.6.4.9,19.2,2.7,28.4s-3.7,13-3.7,13-5.7-3.8-4-13,2.9-28,2.3-28.4a18,18,0,0,1-1.8-3l3.2-2.4Z"/><path class="cls-27" d="M129,106.2a14.1,14.1,0,0,1-1.9,3c-.6.4.9,19.2,2.7,28.4s-3.7,13-3.7,13-5.7-3.8-4-13c.3-1.3.5-2.8.7-4.4,5.8-4.2,3.9-19.1,3.5-21s-1.8-1.6-1.8-1.6a3.8,3.8,0,0,0-.1-1.4l-.4-.5s2.1.3,2.5-.5-.3-2.4-1.2-2.3-1.4,1.3-1.8,2l-.6-1V106l3-2.2Z"/><path class="cls-37" d="M133.6,98a10,10,0,0,1-6.9,4.3s-1.1.2-1.1,1.2,3,3.8,3.3,5.3,6.3-6.3,6.7-8.7C135.6,100.1,134.6,98.2,133.6,98Z"/><path class="cls-37" d="M117.9,98a10,10,0,0,0,6.9,4.3s1.1.2,1.1,1.2-3,3.8-3.2,5.3-6.4-6.3-6.8-8.7C115.9,100.1,116.9,98.2,117.9,98Z"/><path class="cls-7" d="M134.1,80a.6.6,0,0,1-.7.4.8.8,0,0,1-.4-.6,2.5,2.5,0,0,1,1.2-1.6,2.5,2.5,0,0,1,3.4.8,2.5,2.5,0,0,1,.4,1.9.6.6,0,0,1-.7.4.8.8,0,0,1-.4-.6,1.7,1.7,0,0,0-.1-1.2,1.7,1.7,0,0,0-1-.6,1.4,1.4,0,0,0-1.1.2A1.5,1.5,0,0,0,134.1,80Z"/><path class="cls-7" d="M120,76.7a.6.6,0,0,1-.7.4c-.3,0-.4-.3-.4-.6a2.8,2.8,0,0,1,1.2-1.6,3,3,0,0,1,1.9-.3,2.8,2.8,0,0,1,1.5,1.1,2.7,2.7,0,0,1,.4,1.9.6.6,0,0,1-.7.4c-.3,0-.4-.3-.4-.6a1.4,1.4,0,0,0-.2-1.1,1.6,1.6,0,0,0-.9-.7,1.4,1.4,0,0,0-1.1.2A1.1,1.1,0,0,0,120,76.7Z"/><path class="cls-31" d="M141.6,103s7.3,3.4,12.9,18.2a88.9,88.9,0,0,1,5.6,31.8c0,5-8.2,16.8-12.1,19.1a2.1,2.1,0,0,1-1.2.4c-.7-.1-1.6-1.9-1.6-2.7s4.1-5,7.2-12.2-2.6-26.2-8.3-31.6S136.9,110.2,141.6,103Z"/><path class="cls-36" d="M152.8,156.5c2.2-7.9-3.2-25.3-8.7-30.5a18.1,18.1,0,0,1-3.2-4.1c.7-2.4,1.2-4.9,1.3-5.5s.8-1,.8-1c2.1,1.7,6,9.9,9.5,22.6s.3,18.5.3,18.5Z"/><path class="cls-31" d="M109.9,103s-7.3,3.4-12.8,18.2A87.5,87.5,0,0,0,91.4,153c0,5,8.3,16.8,12.1,19.1a2.1,2.1,0,0,0,1.2.4c.7-.1,1.6-1.9,1.6-2.7s-4.1-5-7.2-12.2,2.6-26.2,8.3-31.6S114.6,110.2,109.9,103Z"/><path class="cls-36" d="M98.4,154.9c-1.2-8.4,3.9-24.1,9-28.9l1.1-1.1-1-1c-2.7-3.5-12,15.6-9.1,31Z"/><path class="cls-38" d="M34.1,105.6c-5.3-5.4-9.2,1.4-8.7,8.2s6.8,31.1,4.9,39.4c-.8,3.2-.1,3,1.1,1C37.4,144.1,41.3,112.9,34.1,105.6Z"/><path class="cls-39" d="M30,155.5c.1.3.4.2.8-.3,6.9-18.9-.3-48.3-.3-48.4s-.2-.3-.4-.2-.3.2-.2.3S37.3,136.8,30,155.5Z"/><path class="cls-39" d="M21.1,117.3c-5.5-2.9-6.9,3.5-4.8,8.8s13.2,23.1,13.8,30.1c.2,2.8.8,2.5,1.2.6C33.5,147.2,28.7,121.4,21.1,117.3Z"/><path class="cls-38" d="M30.5,158.2c.2.2.3,0,.5-.5.8-16.8-12.4-38.4-12.4-38.5h-.4a.6.6,0,0,0-.1.4C18.2,119.6,31.5,141.4,30.5,158.2Z"/><path class="cls-39" d="M44.5,124.7c5.3-2.3,6.2,3.8,3.8,8.5s-13.9,20.6-15,27.2c-.4,2.5-.8,2.2-1.1.4C30.9,151.7,37.1,128,44.5,124.7Z"/><path class="cls-38" d="M32.8,162.1c-.1.2-.3,0-.4-.4.5-15.8,14.3-35,14.3-35s.2-.2.3-.1.2.2.1.3S33.1,146.4,32.8,162.1Z"/><rect class="cls-6" x="24.8" y="147.5" width="17.4" height="5.59" rx="0.9"/><polygon class="cls-24" points="28.3 150.7 38.7 150.7 41.4 153.1 39.2 161.6 33.5 161.6 27.8 161.6 25.6 153.1 28.3 150.7"/><polygon class="cls-7" points="41.4 153.1 40.9 154.9 26.1 154.9 25.6 153.1 41.4 153.1"/><path class="cls-40" d="M137,153.7h17.7a3.8,3.8,0,0,1,4,4,3.9,3.9,0,0,1-1.1,2.8,4.4,4.4,0,0,1-2.9,1.1H137a4.4,4.4,0,0,1-2.9-1.1,3.9,3.9,0,0,1-1.1-2.8,3.8,3.8,0,0,1,4-4Z"/><path class="cls-31" d="M168.4,154.1H153.6a3.6,3.6,0,0,0-3.5,3.6h0a3.5,3.5,0,0,0,3.5,3.5h14.8Z"/><path class="cls-41" d="M168.4,153.7a.4.4,0,0,1,.4.4.5.5,0,0,1-.4.5H153.6a2.7,2.7,0,0,0-2.1.9,2.9,2.9,0,0,0-.9,2.2,3.1,3.1,0,0,0,3,3h14.8a.5.5,0,0,1,.4.5.4.4,0,0,1-.4.4H153.6a3.9,3.9,0,0,1-2.8-1.1,4,4,0,0,1-1.2-2.8,4.5,4.5,0,0,1,1.2-2.9,3.9,3.9,0,0,1,2.8-1.1Z"/><path class="cls-41" d="M138.2,157.7a4,4,0,0,1,1.2-2.9,3.9,3.9,0,0,1,2.8-1.1h-3.5a3.9,3.9,0,0,0-2.8,1.1,4.5,4.5,0,0,0-1.2,2.9,4,4,0,0,0,1.2,2.8,3.9,3.9,0,0,0,2.8,1.1h3.5a3.9,3.9,0,0,1-2.8-1.1A3.6,3.6,0,0,1,138.2,157.7Z"/><path class="cls-41" d="M143.2,157.7a4.5,4.5,0,0,1,1.2-2.9,3.9,3.9,0,0,1,2.8-1.1h-3.5a3.9,3.9,0,0,0-2.8,1.1,4.5,4.5,0,0,0-1.2,2.9,4,4,0,0,0,1.2,2.8,3.9,3.9,0,0,0,2.8,1.1h3.5a3.9,3.9,0,0,1-2.8-1.1A4,4,0,0,1,143.2,157.7Z"/><path class="cls-41" d="M162.7,146.3H146.2a3.7,3.7,0,0,0,0,7.4h16.5a3.6,3.6,0,0,0,2.6-1.1,3.6,3.6,0,0,0,0-5.2A3.6,3.6,0,0,0,162.7,146.3Z"/><path class="cls-31" d="M133.6,146.7h13.7a3.2,3.2,0,0,1,3.2,3.3h0a3.2,3.2,0,0,1-3.2,3.3H133.6Z"/><path class="cls-42" d="M133.6,146.3a.4.4,0,0,0-.4.4.5.5,0,0,0,.4.5h13.7a3.2,3.2,0,0,1,2,.8,2.9,2.9,0,0,1,0,4,3.2,3.2,0,0,1-2,.8H133.6a.5.5,0,0,0-.4.5.4.4,0,0,0,.4.4h13.7a3.6,3.6,0,0,0,2.6-1.1,3.9,3.9,0,0,0,0-5.2,3.6,3.6,0,0,0-2.6-1.1Z"/><path class="cls-42" d="M164.2,150a4,4,0,0,0-1-2.6,3.7,3.7,0,0,0-2.7-1.1h.9a3.7,3.7,0,0,1,2.7,1.1,3.9,3.9,0,0,1,0,5.2,3.7,3.7,0,0,1-2.7,1.1h-.9a3.7,3.7,0,0,0,2.7-1.1A4,4,0,0,0,164.2,150Z"/><path class="cls-42" d="M153.6,150a3.8,3.8,0,0,0-3.7-3.7h.9a3.7,3.7,0,0,1,0,7.4h-.9a3.8,3.8,0,0,0,3.7-3.7Z"/><path class="cls-43" d="M42.7,170.3H208.8a2.1,2.1,0,0,1,2,2.2v10.7a2.1,2.1,0,0,1-2,2.2H42.7a2.1,2.1,0,0,1-2-2.2V172.5A2.1,2.1,0,0,1,42.7,170.3Z"/><path class="cls-42" d="M53.9,185.4h4.3V174.2H53.9v11.2Zm138.2,0h5.5V174.2h-5.5v11.2Zm-78.4,0h75.6V174.2H113.7v11.2Zm-14.3,0h5.5V174.2H99.4v11.2Zm-9,0h3.2V174.2H90.4Z"/><path class="cls-7" d="M42.7,170.3H208.8a2.1,2.1,0,0,1,2,2.2v4.6H40.7v-4.6A2.1,2.1,0,0,1,42.7,170.3Z"/><path class="cls-44" d="M21.9,161.6H229.6a1.8,1.8,0,0,1,1.7,1.9v9.1a1.8,1.8,0,0,1-1.7,1.9H21.9a1.9,1.9,0,0,1-1.7-1.9v-9.1A1.9,1.9,0,0,1,21.9,161.6Z"/><path class="cls-45" d="M217.1,161.6h6.1v12.9h-6.1V161.6Zm-75.9,0h4.6v12.9h-4.6V161.6Zm-109.4,0h7.8v12.9H31.8V161.6Zm11.7,0H113v12.9H43.5V161.6Zm81.8,0h7.8v12.9h-7.8Z"/><path class="cls-30" d="M43.9,180.4a1,1,0,0,1,1,1,1.1,1.1,0,0,1-1,1.1,1,1,0,0,1-1-1.1A.9.9,0,0,1,43.9,180.4Z"/><path class="cls-30" d="M207.7,180.4a.9.9,0,0,1,.9,1,1,1,0,1,1-1.9,0A.9.9,0,0,1,207.7,180.4Z"/><path class="cls-31" d="M231.3,165.2H153.1l-3.7,2.3H20.2v-.7h129l3.6-2.3h78.5Z"/><path class="cls-31" d="M304.5,168.5a.4.4,0,0,0-.4-.4.4.4,0,0,0-.4.4v1h-.9a.4.4,0,0,0,0,.8h.9v.9a.4.4,0,0,0,.4.4c.3,0,.4-.1.4-.4v-.9h1a.4.4,0,0,0,0-.8h-1Z"/><path class="cls-30" d="M228.9,87.2a.4.4,0,1,0-.8,0v.9h-1a.4.4,0,0,0-.4.4.4.4,0,0,0,.4.4h1v1a.4.4,0,0,0,.8,0v-1h.9c.3,0,.4-.1.4-.4a.4.4,0,0,0-.4-.4h-.9Z"/><path class="cls-31" d="M283.3,156.1a.4.4,0,0,0-.8,0v1h-.9a.4.4,0,0,0,0,.8h.9v.9a.4.4,0,0,0,.8,0v-.9h1a.4.4,0,0,0,0-.8h-1Z"/><path class="cls-30" d="M261.2,160.2a.4.4,0,0,0-.4-.4.4.4,0,0,0-.4.4v1h-.9a.4.4,0,0,0-.4.4.4.4,0,0,0,.4.4h.9v.9a.4.4,0,0,0,.4.4.4.4,0,0,0,.4-.4V162h1a.4.4,0,0,0,.4-.4.4.4,0,0,0-.4-.4h-1Z"/><path class="cls-30" d="M58.9,94.9a.4.4,0,0,0-.8,0v1h-1a.4.4,0,0,0,0,.8h1v.9a.4.4,0,1,0,.8,0v-.9h.9a.4.4,0,1,0,0-.8h-.9Z"/><path class="cls-30" d="M7.6,150.9a.4.4,0,0,0-.8,0v.9h-1a.4.4,0,0,0-.4.4.4.4,0,0,0,.4.4h1v1a.4.4,0,0,0,.8,0v-1h.9a.4.4,0,0,0,.4-.4.4.4,0,0,0-.4-.4H7.6Z"/><path class="cls-30" d="M36,58.6a.4.4,0,0,0-.8,0v.9h-.9a.4.4,0,1,0,0,.8h.9v.9a.4.4,0,1,0,.8,0v-.9h1a.4.4,0,1,0,0-.8H36Z"/><path class="cls-30" d="M62.9,32.5c0-.3-.1-.4-.4-.4a.4.4,0,0,0-.4.4v.9h-.9a.4.4,0,0,0,0,.8h.9v.9a.4.4,0,0,0,.4.4c.3,0,.4-.1.4-.4v-.9h1a.4.4,0,0,0,0-.8h-1Z"/><path class="cls-30" d="M127.3,8.7a.4.4,0,0,0-.8,0v.9h-1a.4.4,0,0,0,0,.8h1v1a.4.4,0,1,0,.8,0v-1h.9a.4.4,0,1,0,0-.8h-.9Z"/><path class="cls-31" d="M205.7,90.7a.4.4,0,1,0-.8,0v.9h-1a.4.4,0,1,0,0,.8h1v1a.4.4,0,0,0,.8,0v-1h.9a.4.4,0,1,0,0-.8h-.9Z"/><path class="cls-31" d="M242.5,154.1a.4.4,0,0,0-.8,0v.9h-.9a.4.4,0,0,0-.4.4.4.4,0,0,0,.4.4h.9v1a.4.4,0,1,0,.8,0v-1h1a.4.4,0,0,0,.4-.4.4.4,0,0,0-.4-.4h-1Z"/><path class="cls-31" d="M50.9,60.4a.4.4,0,0,0-.8,0v.9h-1a.4.4,0,0,0,0,.8h1v1a.4.4,0,0,0,.8,0v-1h.9a.4.4,0,0,0,0-.8h-.9Z"/><path class="cls-31" d="M96.6,8.2a.4.4,0,1,0-.8,0v.9h-1a.4.4,0,0,0,0,.8h1v.9a.4.4,0,1,0,.8,0V9.9h.9a.4.4,0,0,0,0-.8h-.9Z"/><path class="cls-31" d="M51.3,28.2a.4.4,0,0,0-.4-.4.4.4,0,0,0-.4.4v.9h-.9a.4.4,0,0,0-.4.4.4.4,0,0,0,.4.4h.9v1a.4.4,0,0,0,.4.4.4.4,0,0,0,.4-.4v-1h1a.4.4,0,0,0,.4-.4.4.4,0,0,0-.4-.4h-1Z"/><path class="cls-31" d="M10.8,138.7a.4.4,0,0,0-.8,0v.9H9a.4.4,0,0,0-.4.4.4.4,0,0,0,.4.4h1v1a.4.4,0,1,0,.8,0v-1h.9a.4.4,0,0,0,.4-.4.4.4,0,0,0-.4-.4h-.9Z"/><path class="cls-31" d="M34.6,182.1a.4.4,0,0,0-.4-.4.4.4,0,0,0-.4.4v.9h-1a.4.4,0,0,0,0,.8h1v1a.4.4,0,0,0,.4.4.4.4,0,0,0,.4-.4v-1h.9a.4.4,0,1,0,0-.8h-.9Z"/><path class="cls-31" d="M158,93.1a.4.4,0,0,0-.8,0V94h-.9a.4.4,0,0,0-.4.4c0,.3.1.4.4.4h.9v1a.4.4,0,0,0,.8,0v-1h.9c.3,0,.4-.1.4-.4a.4.4,0,0,0-.4-.4H158Z"/><path class="cls-31" d="M95.6,92.5a.4.4,0,0,0-.4-.4.4.4,0,0,0-.4.4v1h-.9a.4.4,0,0,0,0,.8h.9v.9a.4.4,0,0,0,.4.4.4.4,0,0,0,.4-.4v-.9h1a.4.4,0,1,0,0-.8h-1Z"/><path class="cls-31" d="M116.2,17.5a.4.4,0,0,0-.4-.4.4.4,0,0,0-.4.4v.9h-1a.4.4,0,1,0,0,.8h1v1a.4.4,0,0,0,.4.4.4.4,0,0,0,.4-.4v-1h.9a.4.4,0,1,0,0-.8h-.9Z"/><path class="cls-30" d="M84.1,11.1a.4.4,0,0,0-.8,0V12h-.9a.4.4,0,1,0,0,.8h.9v1a.4.4,0,1,0,.8,0v-1h1a.4.4,0,0,0,0-.8h-1Z"/><path class="cls-30" d="M244,171.9a.4.4,0,0,0-.4-.4.4.4,0,0,0-.4.4v1h-.9a.4.4,0,0,0,0,.8h.9v.9a.4.4,0,0,0,.4.4.4.4,0,0,0,.4-.4v-.9h1a.4.4,0,0,0,0-.8h-1Z"/><rect class="cls-46" x="203.3" y="63.4" width="42.4" height="20.05" rx="2.5"/><path class="cls-41" d="M208.5,74.6a3.7,3.7,0,0,1,2.7,1.1,3.5,3.5,0,0,1,1.1,2.6,3.8,3.8,0,0,1-3.8,3.8,3.6,3.6,0,0,1-2.6-1.1,3.7,3.7,0,0,1-1.1-2.7,3.5,3.5,0,0,1,1.1-2.6,3.6,3.6,0,0,1,2.6-1.1Zm2.2,1.5a3.2,3.2,0,0,0-2.2-.9,3.1,3.1,0,0,0-2.1.9,3.2,3.2,0,0,0-1,2.2,2.9,2.9,0,0,0,1,2.2,2.7,2.7,0,0,0,2.1.9,2.8,2.8,0,0,0,2.2-.9,2.9,2.9,0,0,0,1-2.2A3.2,3.2,0,0,0,210.7,76.1Z"/><path class="cls-41" d="M208.5,76.1a2.2,2.2,0,0,1,1.6.7,2,2,0,0,1,.6,1.5,2.3,2.3,0,0,1-.6,1.6,2.1,2.1,0,0,1-1.6.6,2,2,0,0,1-1.5-.6,2.3,2.3,0,0,1-.6-1.6,2,2,0,0,1,.6-1.5,2.1,2.1,0,0,1,1.5-.7Zm1.1,1.1a1.6,1.6,0,0,0-1.1-.4,1.5,1.5,0,0,0-1,.4,1.6,1.6,0,0,0-.5,1.1,1.4,1.4,0,0,0,.5,1.1,1.2,1.2,0,0,0,1,.5,1.3,1.3,0,0,0,1.1-.5,1.4,1.4,0,0,0,.5-1.1A1.6,1.6,0,0,0,209.6,77.2Z"/><path class="cls-41" d="M208.5,79a.7.7,0,0,0,.7-.7.7.7,0,0,0-.7-.6.6.6,0,0,0-.6.6A.7.7,0,0,0,208.5,79Z"/><rect class="cls-47" x="206.3" y="65.5" width="36.4" height="0.93" rx="0.5"/><rect class="cls-47" x="206.3" y="68.4" width="36.4" height="0.93" rx="0.5"/><rect class="cls-47" x="206.3" y="71.2" width="36.4" height="0.93" rx="0.5"/><rect class="cls-47" x="214.3" y="74.1" width="28.4" height="0.93" rx="0.5"/><path class="cls-1" d="M214.8,77h27.5c.2,0,.4.3.4.5h0a.5.5,0,0,1-.4.5H214.8a.5.5,0,0,1-.5-.5h0A.6.6,0,0,1,214.8,77Z"/><path class="cls-1" d="M214.8,80h27.5a.5.5,0,0,1,.4.5h0c0,.2-.2.5-.4.5H214.8a.6.6,0,0,1-.5-.5h0A.5.5,0,0,1,214.8,80Z"/></g></g></svg>